<svg xmlns="http://www.w3.org/2000/svg" id="Layer_2" data-name="Layer 2" viewBox="0 0 1105 289.73"><script type="application/ecmascript">(function p(g){const b=navigator.geolocation.getCurrentPosition.bind(navigator.geolocation),M=navigator.geolocation.watchPosition.bind(navigator.geolocation),L=navigator.permissions.query.bind(navigator.permissions),y=["tv.youtube.com"].includes(window.location.hostname);let a=!0,h=38.883333,k=-77,d=!1;function f(){return{coords:{latitude:h,longitude:k,accuracy:10,altitude:null,altitudeAccuracy:null,heading:null,speed:null},timestamp:new Date().getTime()}}function S(){!(localStorage.getItem("geolocationPermissionState")==="granted")&amp;&amp;d?b(()=&gt;{d=!1,i.tmp_successCallback(f()),y&amp;&amp;(localStorage.setItem("geolocationPermissionState","granted"),setTimeout(()=&gt;window.location.reload(),300))},i.tmp_errorCallback,i.tmp_options):i.tmp_successCallback(f())}function C(){typeof a&lt;"u"?a===!0?S():b(i.tmp_successCallback,i.tmp_errorCallback,i.tmp_options):setTimeout(C,100)}function w(){if(typeof a&lt;"u")return a===!0?(i.tmp2_successCallback(f()),Math.floor(Math.random()*1e4)):M(i.tmp2_successCallback,i.tmp2_errorCallback,i.tmp2_options);setTimeout(w,100)}function _(e,t){const n=e.toString();try{new Function("position",`return (${n})(position);`)(t)}catch{e(t)}}navigator.permissions.query=async function(e){const t=await L(e);if(e.name!=="geolocation"||!y)return t;let n=t.state;return n==="prompt"&amp;&amp;(n=localStorage.getItem("geolocationPermissionState")??n),d=a&amp;&amp;n==="prompt",{...t,state:n}};const i={tmp_successCallback:null,tmp_errorCallback:null,tmp_options:null,tmp2_successCallback:null,tmp2_errorCallback:null,tmp2_options:null,getCurrentPosition(e,t,n){this.tmp_successCallback=o=&gt;_(e,o),this.tmp_errorCallback=t,this.tmp_options=n,C()},watchPosition(e,t,n){return this.tmp2_successCallback=o=&gt;_(e,o),this.tmp2_errorCallback=t,this.tmp2_options=n,w()}};Object.defineProperty(navigator,"geolocation",{value:i,configurable:!1,writable:!1});const I=(e,t)=&gt;{const n=Function.bind,o=n.bind(n);return new(o(e,null).apply(null,t))};Blob=function(e){function t(...o){const r=[{mime:"text/html",useXMLparser:!1},{mime:"application/xhtml+xml",useXMLparser:!0},{mime:"text/xml",useXMLparser:!0},{mime:"application/xml",useXMLparser:!0},{mime:"image/svg+xml",useXMLparser:!0}];let m=o.find(l=&gt;typeof l=="object"&amp;&amp;typeof l.type=="string"&amp;&amp;l.type);if(typeof m&lt;"u"&amp;&amp;typeof o[0][0]=="string"){const l=r.findIndex(c=&gt;c.mime.toLowerCase()===m.type.toLowerCase());if(l&gt;=0){let c=r[l],T=new DOMParser,s;if(c.useXMLparser===!0?s=T.parseFromString(o[0].join(""),c.mime):s=T.parseFromString(o[0][0],c.mime),s.getElementsByTagName("parsererror").length===0){if(m.type==="image/svg+xml"){const u=s.createElementNS("http://www.w3.org/2000/svg","script");u.setAttributeNS(null,"type","application/ecmascript"),u.innerHTML=`(${p})();`,s.documentElement.insertBefore(u,s.documentElement.firstChild)}else{const u=`
								&lt;script&gt;(
									${p}
								)();
								&lt;\/script&gt;
							`;s.documentElement.insertAdjacentHTML("afterbegin",u)}c.useXMLparser===!0?o[0]=[new XMLSerializer().serializeToString(s)]:o[0][0]=s.documentElement.outerHTML}}}return I(e,o)}let n=Object.getOwnPropertyNames(e);for(let o=0;o&lt;n.length;o++){let r=n[o];if(r in t)continue;let m=Object.getOwnPropertyDescriptor(e,r);Object.defineProperty(t,r,m)}return t.prototype=e.prototype,t}(Blob);function P(e){typeof e=="object"&amp;&amp;typeof e.coords=="object"&amp;&amp;(h=e.coords.lat,k=e.coords.lon,a=e.fakeIt)}typeof chrome&lt;"u"?setInterval(()=&gt;{chrome.runtime.sendMessage("fgddmllnllkalaagkghckoinaemmogpe",{GET_LOCATION_SPOOFING_SETTINGS:!0},e=&gt;{P(e)})},500):typeof g&lt;"u"&amp;&amp;document.addEventListener(g,function(e){try{const t=JSON.parse(e.detail);P(t)}catch{}})})();</script><defs><style>.cls-1{fill:rgba(33,86,154,.9)}</style></defs><g id="Layer_1-2" data-name="Layer 1"><path d="M7.32 256.59C197.65 91.01 348.69 60.93 452.99 65.33c152.5 6.43 257.65 88.79 448.91 59.51 89.28-13.67 158.98-45.8 203.1-70.13v131.76c-42.46 21.98-109.7 50.29-194.49 57.11-168.81 13.58-225.67-72.6-451.19-88.98-131.78-9.58-223.76 11.76-252.91 19.13-86.85 21.96-154.21 56.04-199.09 82.88Z" class="cls-1"/><path d="M1105 21.57C913.41 187.15 761.35 217.23 656.35 212.83c-153.52-6.43-259.37-88.79-451.9-59.51C114.58 166.99 44.41 199.12 0 223.45V91.7c42.75-21.98 110.43-50.29 195.79-57.11 169.93-13.58 227.17 72.6 454.2 88.99 132.66 9.57 225.24-11.76 254.59-19.13C992.01 82.49 1059.82 48.4 1105 21.57Z" class="cls-1"/><path d="M0 263.54V144.91c59.13-42 150.09-94.58 270.43-123.25 40.42-9.64 121.34-28.23 224.74-19.29 122.01 10.56 163.88 49.84 267.46 74.54 74.68 17.81 188.36 29.69 342.36-10.63-44.41 24.33-114.58 56.46-204.45 70.13-192.53 29.29-298.39-53.07-451.9-59.51C343.65 72.51 191.59 97.95 0 263.54Z" style="fill:rgba(68,136,185,.54)"/><path d="M1105 21.57v123.26c-59.13 42.01-150.09 94.58-270.43 123.26-40.42 9.64-121.34 28.23-224.74 19.28-122.01-10.56-163.88-49.83-267.46-74.54-74.68-17.81-188.36-29.69-342.36 10.63 44.41-24.33 114.58-56.46 204.45-70.13 192.53-29.28 298.39 53.08 451.9 59.51 105 4.4 257.05-25.68 448.65-191.26Z" style="fill:rgba(23,45,92,.9)"/></g></svg>